<mxfile host="app.diagrams.net" agent="Mozilla/5.0 (Windows NT 10.0; Win64; x64) AppleWebKit/537.36 (KHTML, like Gecko) Chrome/130.0.0.0 Safari/537.36" version="24.8.4">
  <diagram id="C5RBs43oDa-KdzZeNtuy" name="Page-1">
    <mxGraphModel dx="733" dy="398" grid="1" gridSize="10" guides="1" tooltips="1" connect="1" arrows="1" fold="1" page="1" pageScale="1" pageWidth="827" pageHeight="1169" math="0" shadow="0">
      <root>
        <mxCell id="WIyWlLk6GJQsqaUBKTNV-0" />
        <mxCell id="WIyWlLk6GJQsqaUBKTNV-1" parent="WIyWlLk6GJQsqaUBKTNV-0" />
        <mxCell id="m_5mXAsIZaVLu5FHzMth-16" value="" style="group" parent="WIyWlLk6GJQsqaUBKTNV-1" vertex="1" connectable="0">
          <mxGeometry x="700" y="80" width="290" height="440" as="geometry" />
        </mxCell>
        <mxCell id="m_5mXAsIZaVLu5FHzMth-17" value="" style="rounded=0;html=1;jettySize=auto;orthogonalLoop=1;fontSize=11;endArrow=block;endFill=0;endSize=8;strokeWidth=1;shadow=0;labelBackgroundColor=none;edgeStyle=orthogonalEdgeStyle;" parent="m_5mXAsIZaVLu5FHzMth-16" edge="1">
          <mxGeometry relative="1" as="geometry">
            <mxPoint x="70.02857142857135" y="180" as="sourcePoint" />
            <mxPoint x="70.02857142857135" y="210.0228571428571" as="targetPoint" />
          </mxGeometry>
        </mxCell>
        <mxCell id="m_5mXAsIZaVLu5FHzMth-19" value="No" style="rounded=0;html=1;jettySize=auto;orthogonalLoop=1;fontSize=11;endArrow=block;endFill=0;endSize=8;strokeWidth=1;shadow=0;labelBackgroundColor=none;edgeStyle=orthogonalEdgeStyle;entryX=0.5;entryY=0;entryDx=0;entryDy=0;" parent="m_5mXAsIZaVLu5FHzMth-16" source="m_5mXAsIZaVLu5FHzMth-21" target="m_5mXAsIZaVLu5FHzMth-31" edge="1">
          <mxGeometry x="0.3333" y="20" relative="1" as="geometry">
            <mxPoint as="offset" />
            <mxPoint x="70" y="400" as="targetPoint" />
            <Array as="points" />
          </mxGeometry>
        </mxCell>
        <mxCell id="m_5mXAsIZaVLu5FHzMth-20" value="Yes" style="edgeStyle=orthogonalEdgeStyle;rounded=0;html=1;jettySize=auto;orthogonalLoop=1;fontSize=11;endArrow=block;endFill=0;endSize=8;strokeWidth=1;shadow=0;labelBackgroundColor=none;" parent="m_5mXAsIZaVLu5FHzMth-16" source="m_5mXAsIZaVLu5FHzMth-21" target="m_5mXAsIZaVLu5FHzMth-22" edge="1">
          <mxGeometry y="10" relative="1" as="geometry">
            <mxPoint as="offset" />
          </mxGeometry>
        </mxCell>
        <mxCell id="m_5mXAsIZaVLu5FHzMth-21" value="print transaksi" style="rhombus;whiteSpace=wrap;html=1;shadow=0;fontFamily=Helvetica;fontSize=12;align=center;strokeWidth=1;spacing=6;spacingTop=-4;" parent="m_5mXAsIZaVLu5FHzMth-16" vertex="1">
          <mxGeometry x="20" y="210" width="100" height="80" as="geometry" />
        </mxCell>
        <mxCell id="m_5mXAsIZaVLu5FHzMth-22" value="print transaksi" style="rounded=1;whiteSpace=wrap;html=1;fontSize=12;glass=0;strokeWidth=1;shadow=0;" parent="m_5mXAsIZaVLu5FHzMth-16" vertex="1">
          <mxGeometry x="170" y="230" width="120" height="40" as="geometry" />
        </mxCell>
        <mxCell id="m_5mXAsIZaVLu5FHzMth-23" value="Start" style="ellipse;whiteSpace=wrap;html=1;" parent="m_5mXAsIZaVLu5FHzMth-16" vertex="1">
          <mxGeometry x="10" width="120" height="40" as="geometry" />
        </mxCell>
        <mxCell id="m_5mXAsIZaVLu5FHzMth-24" value="Login" style="shape=process;whiteSpace=wrap;html=1;backgroundOutline=1;" parent="m_5mXAsIZaVLu5FHzMth-16" vertex="1">
          <mxGeometry x="10" y="70" width="120" height="40" as="geometry" />
        </mxCell>
        <mxCell id="m_5mXAsIZaVLu5FHzMth-25" value="" style="edgeStyle=orthogonalEdgeStyle;rounded=0;orthogonalLoop=1;jettySize=auto;html=1;" parent="m_5mXAsIZaVLu5FHzMth-16" source="m_5mXAsIZaVLu5FHzMth-26" edge="1">
          <mxGeometry relative="1" as="geometry">
            <mxPoint x="70" y="210" as="targetPoint" />
          </mxGeometry>
        </mxCell>
        <mxCell id="m_5mXAsIZaVLu5FHzMth-26" value="Output Transaksi Harian" style="shape=parallelogram;perimeter=parallelogramPerimeter;whiteSpace=wrap;html=1;fixedSize=1;" parent="m_5mXAsIZaVLu5FHzMth-16" vertex="1">
          <mxGeometry x="10" y="140" width="120" height="40" as="geometry" />
        </mxCell>
        <mxCell id="m_5mXAsIZaVLu5FHzMth-28" value="" style="rounded=0;html=1;jettySize=auto;orthogonalLoop=1;fontSize=11;endArrow=block;endFill=0;endSize=8;strokeWidth=1;shadow=0;labelBackgroundColor=none;edgeStyle=orthogonalEdgeStyle;exitX=0.5;exitY=1;exitDx=0;exitDy=0;" parent="m_5mXAsIZaVLu5FHzMth-16" source="m_5mXAsIZaVLu5FHzMth-23" edge="1">
          <mxGeometry relative="1" as="geometry">
            <mxPoint x="69.9" y="41.83999999999999" as="sourcePoint" />
            <mxPoint x="70.1" y="70" as="targetPoint" />
          </mxGeometry>
        </mxCell>
        <mxCell id="m_5mXAsIZaVLu5FHzMth-29" value="" style="rounded=0;html=1;jettySize=auto;orthogonalLoop=1;fontSize=11;endArrow=block;endFill=0;endSize=8;strokeWidth=1;shadow=0;labelBackgroundColor=none;edgeStyle=orthogonalEdgeStyle;exitX=0.5;exitY=1;exitDx=0;exitDy=0;entryX=1;entryY=0.567;entryDx=0;entryDy=0;entryPerimeter=0;" parent="m_5mXAsIZaVLu5FHzMth-16" source="m_5mXAsIZaVLu5FHzMth-22" target="m_5mXAsIZaVLu5FHzMth-31" edge="1">
          <mxGeometry x="0.3333" y="20" relative="1" as="geometry">
            <mxPoint as="offset" />
            <mxPoint x="80" y="390" as="sourcePoint" />
            <mxPoint x="130" y="460" as="targetPoint" />
          </mxGeometry>
        </mxCell>
        <mxCell id="m_5mXAsIZaVLu5FHzMth-30" value="" style="endArrow=classic;html=1;rounded=0;exitX=0.5;exitY=1;exitDx=0;exitDy=0;entryX=0.5;entryY=0;entryDx=0;entryDy=0;" parent="m_5mXAsIZaVLu5FHzMth-16" source="m_5mXAsIZaVLu5FHzMth-24" target="m_5mXAsIZaVLu5FHzMth-26" edge="1">
          <mxGeometry width="50" height="50" relative="1" as="geometry">
            <mxPoint x="100" y="130" as="sourcePoint" />
            <mxPoint x="150" y="80" as="targetPoint" />
          </mxGeometry>
        </mxCell>
        <mxCell id="m_5mXAsIZaVLu5FHzMth-31" value="end" style="ellipse;whiteSpace=wrap;html=1;" parent="m_5mXAsIZaVLu5FHzMth-16" vertex="1">
          <mxGeometry x="10" y="320" width="120" height="40" as="geometry" />
        </mxCell>
        <mxCell id="m_5mXAsIZaVLu5FHzMth-72" value="" style="group" parent="WIyWlLk6GJQsqaUBKTNV-1" vertex="1" connectable="0">
          <mxGeometry x="70" y="520" width="280" height="310" as="geometry" />
        </mxCell>
        <mxCell id="m_5mXAsIZaVLu5FHzMth-67" value="" style="endArrow=classic;html=1;rounded=0;" parent="m_5mXAsIZaVLu5FHzMth-72" edge="1">
          <mxGeometry width="50" height="50" relative="1" as="geometry">
            <mxPoint x="60" y="110" as="sourcePoint" />
            <mxPoint x="60" y="140" as="targetPoint" />
          </mxGeometry>
        </mxCell>
        <mxCell id="m_5mXAsIZaVLu5FHzMth-70" value="" style="endArrow=classic;html=1;rounded=0;entryX=0.5;entryY=0;entryDx=0;entryDy=0;" parent="m_5mXAsIZaVLu5FHzMth-72" target="m_5mXAsIZaVLu5FHzMth-59" edge="1">
          <mxGeometry width="50" height="50" relative="1" as="geometry">
            <mxPoint x="220" y="200" as="sourcePoint" />
            <mxPoint x="170" y="250" as="targetPoint" />
          </mxGeometry>
        </mxCell>
        <mxCell id="m_5mXAsIZaVLu5FHzMth-34" value="No" style="rounded=0;html=1;jettySize=auto;orthogonalLoop=1;fontSize=11;endArrow=block;endFill=0;endSize=8;strokeWidth=1;shadow=0;labelBackgroundColor=none;edgeStyle=orthogonalEdgeStyle;entryX=0.5;entryY=0;entryDx=0;entryDy=0;" parent="m_5mXAsIZaVLu5FHzMth-72" source="m_5mXAsIZaVLu5FHzMth-36" target="m_5mXAsIZaVLu5FHzMth-45" edge="1">
          <mxGeometry x="0.3333" y="20" relative="1" as="geometry">
            <mxPoint as="offset" />
            <mxPoint x="60" y="400" as="targetPoint" />
            <Array as="points" />
          </mxGeometry>
        </mxCell>
        <mxCell id="m_5mXAsIZaVLu5FHzMth-35" value="Yes" style="edgeStyle=orthogonalEdgeStyle;rounded=0;html=1;jettySize=auto;orthogonalLoop=1;fontSize=11;endArrow=block;endFill=0;endSize=8;strokeWidth=1;shadow=0;labelBackgroundColor=none;" parent="m_5mXAsIZaVLu5FHzMth-72" source="m_5mXAsIZaVLu5FHzMth-36" target="m_5mXAsIZaVLu5FHzMth-37" edge="1">
          <mxGeometry y="10" relative="1" as="geometry">
            <mxPoint as="offset" />
          </mxGeometry>
        </mxCell>
        <mxCell id="m_5mXAsIZaVLu5FHzMth-36" value="Permintaan stok" style="rhombus;whiteSpace=wrap;html=1;shadow=0;fontFamily=Helvetica;fontSize=12;align=center;strokeWidth=1;spacing=6;spacingTop=-4;" parent="m_5mXAsIZaVLu5FHzMth-72" vertex="1">
          <mxGeometry x="10" y="140" width="100" height="80" as="geometry" />
        </mxCell>
        <mxCell id="m_5mXAsIZaVLu5FHzMth-37" value="Tambahkan stok" style="rounded=1;whiteSpace=wrap;html=1;fontSize=12;glass=0;strokeWidth=1;shadow=0;" parent="m_5mXAsIZaVLu5FHzMth-72" vertex="1">
          <mxGeometry x="160" y="160" width="120" height="40" as="geometry" />
        </mxCell>
        <mxCell id="m_5mXAsIZaVLu5FHzMth-38" value="Start" style="ellipse;whiteSpace=wrap;html=1;" parent="m_5mXAsIZaVLu5FHzMth-72" vertex="1">
          <mxGeometry width="120" height="40" as="geometry" />
        </mxCell>
        <mxCell id="m_5mXAsIZaVLu5FHzMth-39" value="Login" style="shape=process;whiteSpace=wrap;html=1;backgroundOutline=1;" parent="m_5mXAsIZaVLu5FHzMth-72" vertex="1">
          <mxGeometry y="70" width="120" height="40" as="geometry" />
        </mxCell>
        <mxCell id="m_5mXAsIZaVLu5FHzMth-42" value="" style="rounded=0;html=1;jettySize=auto;orthogonalLoop=1;fontSize=11;endArrow=block;endFill=0;endSize=8;strokeWidth=1;shadow=0;labelBackgroundColor=none;edgeStyle=orthogonalEdgeStyle;exitX=0.5;exitY=1;exitDx=0;exitDy=0;" parent="m_5mXAsIZaVLu5FHzMth-72" source="m_5mXAsIZaVLu5FHzMth-38" edge="1">
          <mxGeometry relative="1" as="geometry">
            <mxPoint x="59.900000000000006" y="41.84000000000003" as="sourcePoint" />
            <mxPoint x="60.099999999999994" y="70" as="targetPoint" />
          </mxGeometry>
        </mxCell>
        <mxCell id="m_5mXAsIZaVLu5FHzMth-43" value="" style="rounded=0;html=1;jettySize=auto;orthogonalLoop=1;fontSize=11;endArrow=block;endFill=0;endSize=8;strokeWidth=1;shadow=0;labelBackgroundColor=none;edgeStyle=orthogonalEdgeStyle;exitX=0.5;exitY=1;exitDx=0;exitDy=0;entryX=1;entryY=0.567;entryDx=0;entryDy=0;entryPerimeter=0;" parent="m_5mXAsIZaVLu5FHzMth-72" source="m_5mXAsIZaVLu5FHzMth-59" target="m_5mXAsIZaVLu5FHzMth-45" edge="1">
          <mxGeometry x="0.3333" y="20" relative="1" as="geometry">
            <mxPoint as="offset" />
            <mxPoint x="70" y="390" as="sourcePoint" />
            <mxPoint x="120" y="460" as="targetPoint" />
          </mxGeometry>
        </mxCell>
        <mxCell id="m_5mXAsIZaVLu5FHzMth-45" value="end" style="ellipse;whiteSpace=wrap;html=1;" parent="m_5mXAsIZaVLu5FHzMth-72" vertex="1">
          <mxGeometry y="270" width="120" height="40" as="geometry" />
        </mxCell>
        <mxCell id="m_5mXAsIZaVLu5FHzMth-59" value="Konfirmasi stok" style="rounded=1;whiteSpace=wrap;html=1;fontSize=12;glass=0;strokeWidth=1;shadow=0;" parent="m_5mXAsIZaVLu5FHzMth-72" vertex="1">
          <mxGeometry x="160" y="230" width="120" height="40" as="geometry" />
        </mxCell>
        <mxCell id="d6Exnz_ph32v1kwkcxro-39" value="" style="group" parent="WIyWlLk6GJQsqaUBKTNV-1" vertex="1" connectable="0">
          <mxGeometry x="420" y="540" width="470" height="640" as="geometry" />
        </mxCell>
        <mxCell id="d6Exnz_ph32v1kwkcxro-1" value="" style="endArrow=classic;html=1;rounded=0;" parent="d6Exnz_ph32v1kwkcxro-39" edge="1">
          <mxGeometry width="50" height="50" relative="1" as="geometry">
            <mxPoint x="60" y="110" as="sourcePoint" />
            <mxPoint x="60" y="140" as="targetPoint" />
          </mxGeometry>
        </mxCell>
        <mxCell id="d6Exnz_ph32v1kwkcxro-2" value="" style="endArrow=classic;html=1;rounded=0;entryX=0.5;entryY=0;entryDx=0;entryDy=0;" parent="d6Exnz_ph32v1kwkcxro-39" edge="1">
          <mxGeometry width="50" height="50" relative="1" as="geometry">
            <mxPoint x="370" y="200" as="sourcePoint" />
            <mxPoint x="370" y="230" as="targetPoint" />
          </mxGeometry>
        </mxCell>
        <mxCell id="d6Exnz_ph32v1kwkcxro-3" value="No" style="rounded=0;html=1;jettySize=auto;orthogonalLoop=1;fontSize=11;endArrow=block;endFill=0;endSize=8;strokeWidth=1;shadow=0;labelBackgroundColor=none;edgeStyle=orthogonalEdgeStyle;entryX=0.5;entryY=0;entryDx=0;entryDy=0;" parent="d6Exnz_ph32v1kwkcxro-39" source="d6Exnz_ph32v1kwkcxro-5" target="d6Exnz_ph32v1kwkcxro-11" edge="1">
          <mxGeometry x="0.3333" y="20" relative="1" as="geometry">
            <mxPoint as="offset" />
            <mxPoint x="60" y="400" as="targetPoint" />
            <Array as="points" />
          </mxGeometry>
        </mxCell>
        <mxCell id="d6Exnz_ph32v1kwkcxro-5" value="Status kantin = buka" style="rhombus;whiteSpace=wrap;html=1;shadow=0;fontFamily=Helvetica;fontSize=12;align=center;strokeWidth=1;spacing=6;spacingTop=-4;container=0;" parent="d6Exnz_ph32v1kwkcxro-39" vertex="1">
          <mxGeometry x="10" y="140" width="100" height="80" as="geometry" />
        </mxCell>
        <mxCell id="d6Exnz_ph32v1kwkcxro-7" value="Start" style="ellipse;whiteSpace=wrap;html=1;container=0;" parent="d6Exnz_ph32v1kwkcxro-39" vertex="1">
          <mxGeometry width="120" height="40" as="geometry" />
        </mxCell>
        <mxCell id="d6Exnz_ph32v1kwkcxro-8" value="Login" style="shape=process;whiteSpace=wrap;html=1;backgroundOutline=1;container=0;" parent="d6Exnz_ph32v1kwkcxro-39" vertex="1">
          <mxGeometry y="70" width="120" height="40" as="geometry" />
        </mxCell>
        <mxCell id="d6Exnz_ph32v1kwkcxro-9" value="" style="rounded=0;html=1;jettySize=auto;orthogonalLoop=1;fontSize=11;endArrow=block;endFill=0;endSize=8;strokeWidth=1;shadow=0;labelBackgroundColor=none;edgeStyle=orthogonalEdgeStyle;exitX=0.5;exitY=1;exitDx=0;exitDy=0;" parent="d6Exnz_ph32v1kwkcxro-39" source="d6Exnz_ph32v1kwkcxro-7" edge="1">
          <mxGeometry relative="1" as="geometry">
            <mxPoint x="59.89999999999998" y="41.84000000000003" as="sourcePoint" />
            <mxPoint x="60.10000000000002" y="70" as="targetPoint" />
          </mxGeometry>
        </mxCell>
        <mxCell id="d6Exnz_ph32v1kwkcxro-11" value="end" style="ellipse;whiteSpace=wrap;html=1;container=0;" parent="d6Exnz_ph32v1kwkcxro-39" vertex="1">
          <mxGeometry y="270" width="120" height="40" as="geometry" />
        </mxCell>
        <mxCell id="d6Exnz_ph32v1kwkcxro-13" value="cari &amp;amp; pilih menu" style="rhombus;whiteSpace=wrap;html=1;shadow=0;fontFamily=Helvetica;fontSize=12;align=center;strokeWidth=1;spacing=6;spacingTop=-4;container=0;" parent="d6Exnz_ph32v1kwkcxro-39" vertex="1">
          <mxGeometry x="160" y="140" width="100" height="80" as="geometry" />
        </mxCell>
        <mxCell id="d6Exnz_ph32v1kwkcxro-14" value="print detail menu" style="shape=parallelogram;perimeter=parallelogramPerimeter;whiteSpace=wrap;html=1;fixedSize=1;" parent="d6Exnz_ph32v1kwkcxro-39" vertex="1">
          <mxGeometry x="310" y="160" width="120" height="40" as="geometry" />
        </mxCell>
        <mxCell id="d6Exnz_ph32v1kwkcxro-15" value="buat pesanan" style="rhombus;whiteSpace=wrap;html=1;shadow=0;fontFamily=Helvetica;fontSize=12;align=center;strokeWidth=1;spacing=6;spacingTop=-4;container=0;" parent="d6Exnz_ph32v1kwkcxro-39" vertex="1">
          <mxGeometry x="320" y="230" width="100" height="80" as="geometry" />
        </mxCell>
        <mxCell id="d6Exnz_ph32v1kwkcxro-16" value="" style="endArrow=classic;html=1;rounded=0;entryX=0;entryY=0.5;entryDx=0;entryDy=0;" parent="d6Exnz_ph32v1kwkcxro-39" target="d6Exnz_ph32v1kwkcxro-13" edge="1">
          <mxGeometry width="50" height="50" relative="1" as="geometry">
            <mxPoint x="110" y="180" as="sourcePoint" />
            <mxPoint x="250" y="130" as="targetPoint" />
          </mxGeometry>
        </mxCell>
        <mxCell id="d6Exnz_ph32v1kwkcxro-19" value="yes" style="edgeLabel;html=1;align=center;verticalAlign=middle;resizable=0;points=[];" parent="d6Exnz_ph32v1kwkcxro-16" vertex="1" connectable="0">
          <mxGeometry x="-0.3111" y="-2" relative="1" as="geometry">
            <mxPoint as="offset" />
          </mxGeometry>
        </mxCell>
        <mxCell id="d6Exnz_ph32v1kwkcxro-17" value="" style="endArrow=classic;html=1;rounded=0;entryX=0.065;entryY=0.511;entryDx=0;entryDy=0;entryPerimeter=0;exitX=1;exitY=0.5;exitDx=0;exitDy=0;" parent="d6Exnz_ph32v1kwkcxro-39" source="d6Exnz_ph32v1kwkcxro-13" target="d6Exnz_ph32v1kwkcxro-14" edge="1">
          <mxGeometry width="50" height="50" relative="1" as="geometry">
            <mxPoint x="120" y="190" as="sourcePoint" />
            <mxPoint x="150" y="190" as="targetPoint" />
          </mxGeometry>
        </mxCell>
        <mxCell id="d6Exnz_ph32v1kwkcxro-18" value="yes" style="edgeLabel;html=1;align=center;verticalAlign=middle;resizable=0;points=[];" parent="d6Exnz_ph32v1kwkcxro-17" vertex="1" connectable="0">
          <mxGeometry x="0.2038" y="1" relative="1" as="geometry">
            <mxPoint as="offset" />
          </mxGeometry>
        </mxCell>
        <mxCell id="d6Exnz_ph32v1kwkcxro-21" value="input opsi" style="shape=parallelogram;perimeter=parallelogramPerimeter;whiteSpace=wrap;html=1;fixedSize=1;" parent="d6Exnz_ph32v1kwkcxro-39" vertex="1">
          <mxGeometry x="310" y="340" width="120" height="40" as="geometry" />
        </mxCell>
        <mxCell id="d6Exnz_ph32v1kwkcxro-22" value="opsi = pengambilan" style="rhombus;whiteSpace=wrap;html=1;shadow=0;fontFamily=Helvetica;fontSize=12;align=center;strokeWidth=1;spacing=6;spacingTop=-4;container=0;" parent="d6Exnz_ph32v1kwkcxro-39" vertex="1">
          <mxGeometry x="320" y="410" width="100" height="80" as="geometry" />
        </mxCell>
        <mxCell id="d6Exnz_ph32v1kwkcxro-24" value="Pembayaran" style="shape=process;whiteSpace=wrap;html=1;backgroundOutline=1;" parent="d6Exnz_ph32v1kwkcxro-39" vertex="1">
          <mxGeometry x="310" y="600" width="120" height="40" as="geometry" />
        </mxCell>
        <mxCell id="d6Exnz_ph32v1kwkcxro-25" value="menunggu konfirmasi kurir" style="rounded=0;whiteSpace=wrap;html=1;" parent="d6Exnz_ph32v1kwkcxro-39" vertex="1">
          <mxGeometry x="310" y="520" width="120" height="40" as="geometry" />
        </mxCell>
        <mxCell id="d6Exnz_ph32v1kwkcxro-26" value="" style="endArrow=classic;html=1;rounded=0;exitX=0.5;exitY=1;exitDx=0;exitDy=0;entryX=0.5;entryY=0;entryDx=0;entryDy=0;" parent="d6Exnz_ph32v1kwkcxro-39" source="d6Exnz_ph32v1kwkcxro-15" target="d6Exnz_ph32v1kwkcxro-21" edge="1">
          <mxGeometry width="50" height="50" relative="1" as="geometry">
            <mxPoint x="270" y="330" as="sourcePoint" />
            <mxPoint x="320" y="280" as="targetPoint" />
          </mxGeometry>
        </mxCell>
        <mxCell id="d6Exnz_ph32v1kwkcxro-27" value="" style="endArrow=classic;html=1;rounded=0;exitX=0.5;exitY=1;exitDx=0;exitDy=0;entryX=0.5;entryY=0;entryDx=0;entryDy=0;" parent="d6Exnz_ph32v1kwkcxro-39" source="d6Exnz_ph32v1kwkcxro-21" target="d6Exnz_ph32v1kwkcxro-22" edge="1">
          <mxGeometry width="50" height="50" relative="1" as="geometry">
            <mxPoint x="270" y="510" as="sourcePoint" />
            <mxPoint x="320" y="460" as="targetPoint" />
          </mxGeometry>
        </mxCell>
        <mxCell id="d6Exnz_ph32v1kwkcxro-28" value="" style="endArrow=classic;html=1;rounded=0;exitX=0.5;exitY=1;exitDx=0;exitDy=0;entryX=0.5;entryY=0;entryDx=0;entryDy=0;" parent="d6Exnz_ph32v1kwkcxro-39" source="d6Exnz_ph32v1kwkcxro-22" target="d6Exnz_ph32v1kwkcxro-25" edge="1">
          <mxGeometry width="50" height="50" relative="1" as="geometry">
            <mxPoint x="270" y="510" as="sourcePoint" />
            <mxPoint x="320" y="460" as="targetPoint" />
          </mxGeometry>
        </mxCell>
        <mxCell id="d6Exnz_ph32v1kwkcxro-29" value="" style="endArrow=classic;html=1;rounded=0;exitX=0.5;exitY=1;exitDx=0;exitDy=0;entryX=0.5;entryY=0;entryDx=0;entryDy=0;" parent="d6Exnz_ph32v1kwkcxro-39" source="d6Exnz_ph32v1kwkcxro-25" target="d6Exnz_ph32v1kwkcxro-24" edge="1">
          <mxGeometry width="50" height="50" relative="1" as="geometry">
            <mxPoint x="270" y="510" as="sourcePoint" />
            <mxPoint x="320" y="460" as="targetPoint" />
          </mxGeometry>
        </mxCell>
        <mxCell id="d6Exnz_ph32v1kwkcxro-30" value="yes" style="text;html=1;align=center;verticalAlign=middle;resizable=0;points=[];autosize=1;strokeColor=none;fillColor=none;" parent="d6Exnz_ph32v1kwkcxro-39" vertex="1">
          <mxGeometry x="360" y="308" width="40" height="30" as="geometry" />
        </mxCell>
        <mxCell id="d6Exnz_ph32v1kwkcxro-31" value="" style="endArrow=classic;html=1;rounded=0;exitX=1;exitY=0.5;exitDx=0;exitDy=0;entryX=1;entryY=0.5;entryDx=0;entryDy=0;" parent="d6Exnz_ph32v1kwkcxro-39" source="d6Exnz_ph32v1kwkcxro-22" target="d6Exnz_ph32v1kwkcxro-24" edge="1">
          <mxGeometry width="50" height="50" relative="1" as="geometry">
            <mxPoint x="270" y="510" as="sourcePoint" />
            <mxPoint x="320" y="460" as="targetPoint" />
            <Array as="points">
              <mxPoint x="470" y="450" />
              <mxPoint x="470" y="620" />
            </Array>
          </mxGeometry>
        </mxCell>
        <mxCell id="d6Exnz_ph32v1kwkcxro-32" value="yes" style="text;html=1;align=center;verticalAlign=middle;resizable=0;points=[];autosize=1;strokeColor=none;fillColor=none;" parent="d6Exnz_ph32v1kwkcxro-39" vertex="1">
          <mxGeometry x="420" y="418" width="40" height="30" as="geometry" />
        </mxCell>
        <mxCell id="d6Exnz_ph32v1kwkcxro-33" value="no" style="text;html=1;align=center;verticalAlign=middle;resizable=0;points=[];autosize=1;strokeColor=none;fillColor=none;" parent="d6Exnz_ph32v1kwkcxro-39" vertex="1">
          <mxGeometry x="340" y="488" width="40" height="30" as="geometry" />
        </mxCell>
        <mxCell id="d6Exnz_ph32v1kwkcxro-34" value="" style="endArrow=classic;html=1;rounded=0;exitX=0;exitY=0.5;exitDx=0;exitDy=0;" parent="d6Exnz_ph32v1kwkcxro-39" source="d6Exnz_ph32v1kwkcxro-24" edge="1">
          <mxGeometry width="50" height="50" relative="1" as="geometry">
            <mxPoint x="270" y="590" as="sourcePoint" />
            <mxPoint x="60" y="230" as="targetPoint" />
            <Array as="points">
              <mxPoint x="130" y="620" />
              <mxPoint x="130" y="230" />
            </Array>
          </mxGeometry>
        </mxCell>
        <mxCell id="d6Exnz_ph32v1kwkcxro-35" value="" style="endArrow=classic;html=1;rounded=0;exitX=0;exitY=0.5;exitDx=0;exitDy=0;" parent="d6Exnz_ph32v1kwkcxro-39" source="d6Exnz_ph32v1kwkcxro-15" edge="1">
          <mxGeometry width="50" height="50" relative="1" as="geometry">
            <mxPoint x="270" y="250" as="sourcePoint" />
            <mxPoint x="140" y="180" as="targetPoint" />
            <Array as="points">
              <mxPoint x="140" y="270" />
            </Array>
          </mxGeometry>
        </mxCell>
        <mxCell id="d6Exnz_ph32v1kwkcxro-36" value="no" style="text;html=1;align=center;verticalAlign=middle;resizable=0;points=[];autosize=1;strokeColor=none;fillColor=none;" parent="d6Exnz_ph32v1kwkcxro-39" vertex="1">
          <mxGeometry x="230" y="248" width="40" height="30" as="geometry" />
        </mxCell>
        <mxCell id="d6Exnz_ph32v1kwkcxro-37" value="" style="endArrow=classic;html=1;rounded=0;exitX=0.5;exitY=1;exitDx=0;exitDy=0;entryX=1;entryY=0.5;entryDx=0;entryDy=0;" parent="d6Exnz_ph32v1kwkcxro-39" source="d6Exnz_ph32v1kwkcxro-13" target="d6Exnz_ph32v1kwkcxro-11" edge="1">
          <mxGeometry width="50" height="50" relative="1" as="geometry">
            <mxPoint x="270" y="250" as="sourcePoint" />
            <mxPoint x="320" y="200" as="targetPoint" />
            <Array as="points">
              <mxPoint x="210" y="290" />
            </Array>
          </mxGeometry>
        </mxCell>
        <mxCell id="d6Exnz_ph32v1kwkcxro-38" value="no" style="text;html=1;align=center;verticalAlign=middle;resizable=0;points=[];autosize=1;strokeColor=none;fillColor=none;" parent="d6Exnz_ph32v1kwkcxro-39" vertex="1">
          <mxGeometry x="180" y="238" width="40" height="30" as="geometry" />
        </mxCell>
        <mxCell id="d6Exnz_ph32v1kwkcxro-41" value="" style="group" parent="WIyWlLk6GJQsqaUBKTNV-1" vertex="1" connectable="0">
          <mxGeometry x="160" y="20" width="280" height="440" as="geometry" />
        </mxCell>
        <mxCell id="WIyWlLk6GJQsqaUBKTNV-2" value="" style="rounded=0;html=1;jettySize=auto;orthogonalLoop=1;fontSize=11;endArrow=block;endFill=0;endSize=8;strokeWidth=1;shadow=0;labelBackgroundColor=none;edgeStyle=orthogonalEdgeStyle;" parent="d6Exnz_ph32v1kwkcxro-41" edge="1">
          <mxGeometry relative="1" as="geometry">
            <mxPoint x="60.028571428571354" y="180" as="sourcePoint" />
            <mxPoint x="60.028571428571354" y="210.0228571428571" as="targetPoint" />
          </mxGeometry>
        </mxCell>
        <mxCell id="WIyWlLk6GJQsqaUBKTNV-4" value="" style="rounded=0;html=1;jettySize=auto;orthogonalLoop=1;fontSize=11;endArrow=block;endFill=0;endSize=8;strokeWidth=1;shadow=0;labelBackgroundColor=none;edgeStyle=orthogonalEdgeStyle;" parent="d6Exnz_ph32v1kwkcxro-41" target="WIyWlLk6GJQsqaUBKTNV-10" edge="1">
          <mxGeometry y="20" relative="1" as="geometry">
            <mxPoint as="offset" />
            <mxPoint x="60" y="260" as="sourcePoint" />
          </mxGeometry>
        </mxCell>
        <mxCell id="WIyWlLk6GJQsqaUBKTNV-8" value="No" style="rounded=0;html=1;jettySize=auto;orthogonalLoop=1;fontSize=11;endArrow=block;endFill=0;endSize=8;strokeWidth=1;shadow=0;labelBackgroundColor=none;edgeStyle=orthogonalEdgeStyle;" parent="d6Exnz_ph32v1kwkcxro-41" source="WIyWlLk6GJQsqaUBKTNV-10" edge="1">
          <mxGeometry x="0.3333" y="20" relative="1" as="geometry">
            <mxPoint as="offset" />
            <mxPoint x="60" y="400" as="targetPoint" />
            <Array as="points">
              <mxPoint x="60" y="400" />
              <mxPoint x="60" y="400" />
            </Array>
          </mxGeometry>
        </mxCell>
        <mxCell id="WIyWlLk6GJQsqaUBKTNV-9" value="Yes" style="edgeStyle=orthogonalEdgeStyle;rounded=0;html=1;jettySize=auto;orthogonalLoop=1;fontSize=11;endArrow=block;endFill=0;endSize=8;strokeWidth=1;shadow=0;labelBackgroundColor=none;" parent="d6Exnz_ph32v1kwkcxro-41" source="WIyWlLk6GJQsqaUBKTNV-10" target="WIyWlLk6GJQsqaUBKTNV-12" edge="1">
          <mxGeometry y="10" relative="1" as="geometry">
            <mxPoint as="offset" />
          </mxGeometry>
        </mxCell>
        <mxCell id="WIyWlLk6GJQsqaUBKTNV-10" value="stok &amp;lt; minimun" style="rhombus;whiteSpace=wrap;html=1;shadow=0;fontFamily=Helvetica;fontSize=12;align=center;strokeWidth=1;spacing=6;spacingTop=-4;container=0;" parent="d6Exnz_ph32v1kwkcxro-41" vertex="1">
          <mxGeometry x="10" y="290" width="100" height="80" as="geometry" />
        </mxCell>
        <mxCell id="WIyWlLk6GJQsqaUBKTNV-12" value="Permintaan stok" style="rounded=1;whiteSpace=wrap;html=1;fontSize=12;glass=0;strokeWidth=1;shadow=0;container=0;" parent="d6Exnz_ph32v1kwkcxro-41" vertex="1">
          <mxGeometry x="160" y="310" width="120" height="40" as="geometry" />
        </mxCell>
        <mxCell id="m_5mXAsIZaVLu5FHzMth-0" value="Start" style="ellipse;whiteSpace=wrap;html=1;container=0;" parent="d6Exnz_ph32v1kwkcxro-41" vertex="1">
          <mxGeometry width="120" height="40" as="geometry" />
        </mxCell>
        <mxCell id="m_5mXAsIZaVLu5FHzMth-1" value="Login" style="shape=process;whiteSpace=wrap;html=1;backgroundOutline=1;container=0;" parent="d6Exnz_ph32v1kwkcxro-41" vertex="1">
          <mxGeometry y="70" width="120" height="40" as="geometry" />
        </mxCell>
        <mxCell id="m_5mXAsIZaVLu5FHzMth-6" value="" style="edgeStyle=orthogonalEdgeStyle;rounded=0;orthogonalLoop=1;jettySize=auto;html=1;" parent="d6Exnz_ph32v1kwkcxro-41" source="m_5mXAsIZaVLu5FHzMth-2" edge="1">
          <mxGeometry relative="1" as="geometry">
            <mxPoint x="60" y="210.0000000000001" as="targetPoint" />
          </mxGeometry>
        </mxCell>
        <mxCell id="m_5mXAsIZaVLu5FHzMth-2" value="Input menu Baru" style="shape=parallelogram;perimeter=parallelogramPerimeter;whiteSpace=wrap;html=1;fixedSize=1;container=0;" parent="d6Exnz_ph32v1kwkcxro-41" vertex="1">
          <mxGeometry y="140" width="120" height="40" as="geometry" />
        </mxCell>
        <mxCell id="m_5mXAsIZaVLu5FHzMth-4" value="" style="rounded=0;html=1;jettySize=auto;orthogonalLoop=1;fontSize=11;endArrow=block;endFill=0;endSize=8;strokeWidth=1;shadow=0;labelBackgroundColor=none;edgeStyle=orthogonalEdgeStyle;exitX=0.5;exitY=1;exitDx=0;exitDy=0;" parent="d6Exnz_ph32v1kwkcxro-41" source="m_5mXAsIZaVLu5FHzMth-0" edge="1">
          <mxGeometry relative="1" as="geometry">
            <mxPoint x="59.900000000000006" y="41.83999999999999" as="sourcePoint" />
            <mxPoint x="60.099999999999994" y="70" as="targetPoint" />
          </mxGeometry>
        </mxCell>
        <mxCell id="m_5mXAsIZaVLu5FHzMth-5" value="" style="rounded=0;html=1;jettySize=auto;orthogonalLoop=1;fontSize=11;endArrow=block;endFill=0;endSize=8;strokeWidth=1;shadow=0;labelBackgroundColor=none;edgeStyle=orthogonalEdgeStyle;exitX=0.5;exitY=1;exitDx=0;exitDy=0;entryX=1;entryY=0.567;entryDx=0;entryDy=0;entryPerimeter=0;" parent="d6Exnz_ph32v1kwkcxro-41" source="WIyWlLk6GJQsqaUBKTNV-12" target="m_5mXAsIZaVLu5FHzMth-11" edge="1">
          <mxGeometry x="0.3333" y="20" relative="1" as="geometry">
            <mxPoint as="offset" />
            <mxPoint x="70" y="390" as="sourcePoint" />
            <mxPoint x="120" y="460" as="targetPoint" />
          </mxGeometry>
        </mxCell>
        <mxCell id="m_5mXAsIZaVLu5FHzMth-9" value="" style="endArrow=classic;html=1;rounded=0;exitX=0.5;exitY=1;exitDx=0;exitDy=0;entryX=0.5;entryY=0;entryDx=0;entryDy=0;" parent="d6Exnz_ph32v1kwkcxro-41" source="m_5mXAsIZaVLu5FHzMth-1" target="m_5mXAsIZaVLu5FHzMth-2" edge="1">
          <mxGeometry width="50" height="50" relative="1" as="geometry">
            <mxPoint x="90" y="130" as="sourcePoint" />
            <mxPoint x="140" y="80" as="targetPoint" />
          </mxGeometry>
        </mxCell>
        <mxCell id="m_5mXAsIZaVLu5FHzMth-11" value="end" style="ellipse;whiteSpace=wrap;html=1;container=0;" parent="d6Exnz_ph32v1kwkcxro-41" vertex="1">
          <mxGeometry y="400" width="120" height="40" as="geometry" />
        </mxCell>
        <mxCell id="d6Exnz_ph32v1kwkcxro-40" value="Update status ketersediaan stok" style="rounded=1;whiteSpace=wrap;html=1;" parent="d6Exnz_ph32v1kwkcxro-41" vertex="1">
          <mxGeometry y="210" width="120" height="50" as="geometry" />
        </mxCell>
        <mxCell id="d6Exnz_ph32v1kwkcxro-86" value="" style="group" parent="WIyWlLk6GJQsqaUBKTNV-1" vertex="1" connectable="0">
          <mxGeometry x="1070" y="560" width="450" height="390" as="geometry" />
        </mxCell>
        <mxCell id="d6Exnz_ph32v1kwkcxro-43" value="" style="endArrow=classic;html=1;rounded=0;" parent="d6Exnz_ph32v1kwkcxro-86" edge="1">
          <mxGeometry width="50" height="50" relative="1" as="geometry">
            <mxPoint x="60" y="110" as="sourcePoint" />
            <mxPoint x="60" y="140" as="targetPoint" />
          </mxGeometry>
        </mxCell>
        <mxCell id="d6Exnz_ph32v1kwkcxro-44" value="" style="endArrow=classic;html=1;rounded=0;entryX=0.5;entryY=0;entryDx=0;entryDy=0;" parent="d6Exnz_ph32v1kwkcxro-86" edge="1">
          <mxGeometry width="50" height="50" relative="1" as="geometry">
            <mxPoint x="379.5799999999999" y="200" as="sourcePoint" />
            <mxPoint x="379.5799999999999" y="230" as="targetPoint" />
          </mxGeometry>
        </mxCell>
        <mxCell id="d6Exnz_ph32v1kwkcxro-45" value="" style="rounded=0;html=1;jettySize=auto;orthogonalLoop=1;fontSize=11;endArrow=block;endFill=0;endSize=8;strokeWidth=1;shadow=0;labelBackgroundColor=none;edgeStyle=orthogonalEdgeStyle;entryX=0.5;entryY=0;entryDx=0;entryDy=0;" parent="d6Exnz_ph32v1kwkcxro-86" source="d6Exnz_ph32v1kwkcxro-46" target="d6Exnz_ph32v1kwkcxro-50" edge="1">
          <mxGeometry x="0.3333" y="20" relative="1" as="geometry">
            <mxPoint as="offset" />
            <mxPoint x="60" y="400" as="targetPoint" />
            <Array as="points" />
          </mxGeometry>
        </mxCell>
        <mxCell id="d6Exnz_ph32v1kwkcxro-46" value="pesanan baru, opsi pengantaran" style="rhombus;whiteSpace=wrap;html=1;shadow=0;fontFamily=Helvetica;fontSize=12;align=center;strokeWidth=1;spacing=6;spacingTop=-4;container=0;" parent="d6Exnz_ph32v1kwkcxro-86" vertex="1">
          <mxGeometry x="10" y="140" width="100" height="80" as="geometry" />
        </mxCell>
        <mxCell id="d6Exnz_ph32v1kwkcxro-47" value="Start" style="ellipse;whiteSpace=wrap;html=1;container=0;" parent="d6Exnz_ph32v1kwkcxro-86" vertex="1">
          <mxGeometry width="120" height="40" as="geometry" />
        </mxCell>
        <mxCell id="d6Exnz_ph32v1kwkcxro-48" value="Login" style="shape=process;whiteSpace=wrap;html=1;backgroundOutline=1;container=0;" parent="d6Exnz_ph32v1kwkcxro-86" vertex="1">
          <mxGeometry y="70" width="120" height="40" as="geometry" />
        </mxCell>
        <mxCell id="d6Exnz_ph32v1kwkcxro-49" value="" style="rounded=0;html=1;jettySize=auto;orthogonalLoop=1;fontSize=11;endArrow=block;endFill=0;endSize=8;strokeWidth=1;shadow=0;labelBackgroundColor=none;edgeStyle=orthogonalEdgeStyle;exitX=0.5;exitY=1;exitDx=0;exitDy=0;" parent="d6Exnz_ph32v1kwkcxro-86" source="d6Exnz_ph32v1kwkcxro-47" edge="1">
          <mxGeometry relative="1" as="geometry">
            <mxPoint x="59.90000000000009" y="41.84000000000003" as="sourcePoint" />
            <mxPoint x="60.09999999999991" y="70" as="targetPoint" />
          </mxGeometry>
        </mxCell>
        <mxCell id="d6Exnz_ph32v1kwkcxro-50" value="end" style="ellipse;whiteSpace=wrap;html=1;container=0;" parent="d6Exnz_ph32v1kwkcxro-86" vertex="1">
          <mxGeometry y="270" width="120" height="40" as="geometry" />
        </mxCell>
        <mxCell id="d6Exnz_ph32v1kwkcxro-51" value="ambil pesanan" style="rhombus;whiteSpace=wrap;html=1;shadow=0;fontFamily=Helvetica;fontSize=12;align=center;strokeWidth=1;spacing=6;spacingTop=-4;container=0;" parent="d6Exnz_ph32v1kwkcxro-86" vertex="1">
          <mxGeometry x="160" y="140" width="100" height="80" as="geometry" />
        </mxCell>
        <mxCell id="d6Exnz_ph32v1kwkcxro-52" value="print detail pesanan" style="shape=parallelogram;perimeter=parallelogramPerimeter;whiteSpace=wrap;html=1;fixedSize=1;container=0;" parent="d6Exnz_ph32v1kwkcxro-86" vertex="1">
          <mxGeometry x="310" y="160" width="140" height="40" as="geometry" />
        </mxCell>
        <mxCell id="d6Exnz_ph32v1kwkcxro-54" value="" style="endArrow=classic;html=1;rounded=0;entryX=0;entryY=0.5;entryDx=0;entryDy=0;" parent="d6Exnz_ph32v1kwkcxro-86" target="d6Exnz_ph32v1kwkcxro-51" edge="1">
          <mxGeometry width="50" height="50" relative="1" as="geometry">
            <mxPoint x="110" y="180" as="sourcePoint" />
            <mxPoint x="250" y="130" as="targetPoint" />
          </mxGeometry>
        </mxCell>
        <mxCell id="d6Exnz_ph32v1kwkcxro-55" value="yes" style="edgeLabel;html=1;align=center;verticalAlign=middle;resizable=0;points=[];container=0;" parent="d6Exnz_ph32v1kwkcxro-54" vertex="1" connectable="0">
          <mxGeometry x="-0.3111" y="-2" relative="1" as="geometry">
            <mxPoint as="offset" />
          </mxGeometry>
        </mxCell>
        <mxCell id="d6Exnz_ph32v1kwkcxro-56" value="" style="endArrow=classic;html=1;rounded=0;entryX=0.065;entryY=0.511;entryDx=0;entryDy=0;entryPerimeter=0;exitX=1;exitY=0.5;exitDx=0;exitDy=0;" parent="d6Exnz_ph32v1kwkcxro-86" source="d6Exnz_ph32v1kwkcxro-51" target="d6Exnz_ph32v1kwkcxro-52" edge="1">
          <mxGeometry width="50" height="50" relative="1" as="geometry">
            <mxPoint x="120" y="190" as="sourcePoint" />
            <mxPoint x="150" y="190" as="targetPoint" />
          </mxGeometry>
        </mxCell>
        <mxCell id="d6Exnz_ph32v1kwkcxro-57" value="yes" style="edgeLabel;html=1;align=center;verticalAlign=middle;resizable=0;points=[];container=0;" parent="d6Exnz_ph32v1kwkcxro-56" vertex="1" connectable="0">
          <mxGeometry x="0.2038" y="1" relative="1" as="geometry">
            <mxPoint as="offset" />
          </mxGeometry>
        </mxCell>
        <mxCell id="d6Exnz_ph32v1kwkcxro-73" value="" style="endArrow=classic;html=1;rounded=0;exitX=0.5;exitY=1;exitDx=0;exitDy=0;" parent="d6Exnz_ph32v1kwkcxro-86" source="d6Exnz_ph32v1kwkcxro-51" edge="1">
          <mxGeometry width="50" height="50" relative="1" as="geometry">
            <mxPoint x="270" y="250" as="sourcePoint" />
            <mxPoint x="60" y="230" as="targetPoint" />
            <Array as="points">
              <mxPoint x="210" y="230" />
            </Array>
          </mxGeometry>
        </mxCell>
        <mxCell id="d6Exnz_ph32v1kwkcxro-77" value="antar pesanan ke pembeli" style="rounded=1;whiteSpace=wrap;html=1;" parent="d6Exnz_ph32v1kwkcxro-86" vertex="1">
          <mxGeometry x="320" y="230" width="120" height="40" as="geometry" />
        </mxCell>
        <mxCell id="d6Exnz_ph32v1kwkcxro-78" value="update status pemesanan" style="rounded=1;whiteSpace=wrap;html=1;" parent="d6Exnz_ph32v1kwkcxro-86" vertex="1">
          <mxGeometry x="320" y="290" width="120" height="40" as="geometry" />
        </mxCell>
        <mxCell id="d6Exnz_ph32v1kwkcxro-79" value="print rekap &amp;amp; komisi" style="shape=parallelogram;perimeter=parallelogramPerimeter;whiteSpace=wrap;html=1;fixedSize=1;container=0;" parent="d6Exnz_ph32v1kwkcxro-86" vertex="1">
          <mxGeometry x="310" y="350" width="140" height="40" as="geometry" />
        </mxCell>
        <mxCell id="d6Exnz_ph32v1kwkcxro-80" value="" style="endArrow=classic;html=1;rounded=0;exitX=0;exitY=0.75;exitDx=0;exitDy=0;" parent="d6Exnz_ph32v1kwkcxro-86" source="d6Exnz_ph32v1kwkcxro-79" edge="1">
          <mxGeometry width="50" height="50" relative="1" as="geometry">
            <mxPoint x="280" y="280" as="sourcePoint" />
            <mxPoint x="60" y="250" as="targetPoint" />
            <Array as="points">
              <mxPoint x="290" y="380" />
              <mxPoint x="290" y="250" />
            </Array>
          </mxGeometry>
        </mxCell>
        <mxCell id="d6Exnz_ph32v1kwkcxro-81" value="no" style="text;html=1;align=center;verticalAlign=middle;resizable=0;points=[];autosize=1;strokeColor=none;fillColor=none;" parent="d6Exnz_ph32v1kwkcxro-86" vertex="1">
          <mxGeometry x="100" y="208" width="40" height="30" as="geometry" />
        </mxCell>
        <mxCell id="d6Exnz_ph32v1kwkcxro-82" value="" style="endArrow=classic;html=1;rounded=0;exitX=0.5;exitY=1;exitDx=0;exitDy=0;entryX=0.5;entryY=0;entryDx=0;entryDy=0;" parent="d6Exnz_ph32v1kwkcxro-86" source="d6Exnz_ph32v1kwkcxro-77" target="d6Exnz_ph32v1kwkcxro-78" edge="1">
          <mxGeometry width="50" height="50" relative="1" as="geometry">
            <mxPoint x="280" y="280" as="sourcePoint" />
            <mxPoint x="330" y="230" as="targetPoint" />
          </mxGeometry>
        </mxCell>
        <mxCell id="d6Exnz_ph32v1kwkcxro-83" value="" style="endArrow=classic;html=1;rounded=0;exitX=0.5;exitY=1;exitDx=0;exitDy=0;" parent="d6Exnz_ph32v1kwkcxro-86" source="d6Exnz_ph32v1kwkcxro-78" target="d6Exnz_ph32v1kwkcxro-79" edge="1">
          <mxGeometry width="50" height="50" relative="1" as="geometry">
            <mxPoint x="280" y="280" as="sourcePoint" />
            <mxPoint x="330" y="230" as="targetPoint" />
          </mxGeometry>
        </mxCell>
        <mxCell id="d6Exnz_ph32v1kwkcxro-85" value="no" style="text;html=1;align=center;verticalAlign=middle;resizable=0;points=[];autosize=1;strokeColor=none;fillColor=none;" parent="d6Exnz_ph32v1kwkcxro-86" vertex="1">
          <mxGeometry x="30" y="228" width="40" height="30" as="geometry" />
        </mxCell>
        <mxCell id="d6Exnz_ph32v1kwkcxro-126" value="" style="group" parent="WIyWlLk6GJQsqaUBKTNV-1" vertex="1" connectable="0">
          <mxGeometry x="1745" y="610" width="300" height="400" as="geometry" />
        </mxCell>
        <mxCell id="d6Exnz_ph32v1kwkcxro-92" value="Start" style="ellipse;whiteSpace=wrap;html=1;container=0;" parent="d6Exnz_ph32v1kwkcxro-126" vertex="1">
          <mxGeometry x="35" width="120" height="40" as="geometry" />
        </mxCell>
        <mxCell id="d6Exnz_ph32v1kwkcxro-94" value="" style="rounded=0;html=1;jettySize=auto;orthogonalLoop=1;fontSize=11;endArrow=block;endFill=0;endSize=8;strokeWidth=1;shadow=0;labelBackgroundColor=none;edgeStyle=orthogonalEdgeStyle;exitX=0.5;exitY=1;exitDx=0;exitDy=0;" parent="d6Exnz_ph32v1kwkcxro-126" source="d6Exnz_ph32v1kwkcxro-92" edge="1">
          <mxGeometry relative="1" as="geometry">
            <mxPoint x="94.90000000000009" y="41.84000000000003" as="sourcePoint" />
            <mxPoint x="95.09999999999991" y="70" as="targetPoint" />
          </mxGeometry>
        </mxCell>
        <mxCell id="d6Exnz_ph32v1kwkcxro-111" value="input username &amp;amp; password" style="shape=parallelogram;perimeter=parallelogramPerimeter;whiteSpace=wrap;html=1;fixedSize=1;" parent="d6Exnz_ph32v1kwkcxro-126" vertex="1">
          <mxGeometry y="70" width="190" height="40" as="geometry" />
        </mxCell>
        <mxCell id="d6Exnz_ph32v1kwkcxro-112" value="find user &amp;amp; role" style="rounded=0;whiteSpace=wrap;html=1;" parent="d6Exnz_ph32v1kwkcxro-126" vertex="1">
          <mxGeometry x="35" y="140" width="120" height="40" as="geometry" />
        </mxCell>
        <mxCell id="d6Exnz_ph32v1kwkcxro-113" value="User ketemu" style="rhombus;whiteSpace=wrap;html=1;" parent="d6Exnz_ph32v1kwkcxro-126" vertex="1">
          <mxGeometry x="45" y="210" width="100" height="60" as="geometry" />
        </mxCell>
        <mxCell id="d6Exnz_ph32v1kwkcxro-114" value="output fitur sesuai role" style="shape=parallelogram;perimeter=parallelogramPerimeter;whiteSpace=wrap;html=1;fixedSize=1;" parent="d6Exnz_ph32v1kwkcxro-126" vertex="1">
          <mxGeometry x="10" y="300" width="170" height="40" as="geometry" />
        </mxCell>
        <mxCell id="d6Exnz_ph32v1kwkcxro-115" value="End" style="ellipse;whiteSpace=wrap;html=1;container=0;" parent="d6Exnz_ph32v1kwkcxro-126" vertex="1">
          <mxGeometry x="35" y="360" width="120" height="40" as="geometry" />
        </mxCell>
        <mxCell id="d6Exnz_ph32v1kwkcxro-116" value="" style="endArrow=classic;html=1;rounded=0;entryX=0.5;entryY=0;entryDx=0;entryDy=0;" parent="d6Exnz_ph32v1kwkcxro-126" target="d6Exnz_ph32v1kwkcxro-112" edge="1">
          <mxGeometry width="50" height="50" relative="1" as="geometry">
            <mxPoint x="95" y="111" as="sourcePoint" />
            <mxPoint x="275" y="160" as="targetPoint" />
          </mxGeometry>
        </mxCell>
        <mxCell id="d6Exnz_ph32v1kwkcxro-117" value="" style="endArrow=classic;html=1;rounded=0;exitX=0.5;exitY=1;exitDx=0;exitDy=0;entryX=0.5;entryY=0;entryDx=0;entryDy=0;" parent="d6Exnz_ph32v1kwkcxro-126" source="d6Exnz_ph32v1kwkcxro-112" target="d6Exnz_ph32v1kwkcxro-113" edge="1">
          <mxGeometry width="50" height="50" relative="1" as="geometry">
            <mxPoint x="225" y="210" as="sourcePoint" />
            <mxPoint x="275" y="160" as="targetPoint" />
          </mxGeometry>
        </mxCell>
        <mxCell id="d6Exnz_ph32v1kwkcxro-118" value="" style="endArrow=classic;html=1;rounded=0;exitX=0.5;exitY=1;exitDx=0;exitDy=0;entryX=0.5;entryY=0;entryDx=0;entryDy=0;" parent="d6Exnz_ph32v1kwkcxro-126" source="d6Exnz_ph32v1kwkcxro-113" target="d6Exnz_ph32v1kwkcxro-114" edge="1">
          <mxGeometry width="50" height="50" relative="1" as="geometry">
            <mxPoint x="225" y="210" as="sourcePoint" />
            <mxPoint x="275" y="160" as="targetPoint" />
          </mxGeometry>
        </mxCell>
        <mxCell id="d6Exnz_ph32v1kwkcxro-119" value="" style="endArrow=classic;html=1;rounded=0;exitX=0.5;exitY=1;exitDx=0;exitDy=0;" parent="d6Exnz_ph32v1kwkcxro-126" source="d6Exnz_ph32v1kwkcxro-114" target="d6Exnz_ph32v1kwkcxro-115" edge="1">
          <mxGeometry width="50" height="50" relative="1" as="geometry">
            <mxPoint x="225" y="350" as="sourcePoint" />
            <mxPoint x="275" y="300" as="targetPoint" />
          </mxGeometry>
        </mxCell>
        <mxCell id="d6Exnz_ph32v1kwkcxro-120" value="Output error" style="shape=parallelogram;perimeter=parallelogramPerimeter;whiteSpace=wrap;html=1;fixedSize=1;" parent="d6Exnz_ph32v1kwkcxro-126" vertex="1">
          <mxGeometry x="180" y="220" width="120" height="40" as="geometry" />
        </mxCell>
        <mxCell id="d6Exnz_ph32v1kwkcxro-121" value="" style="endArrow=classic;html=1;rounded=0;exitX=1;exitY=0.5;exitDx=0;exitDy=0;entryX=0;entryY=0.5;entryDx=0;entryDy=0;" parent="d6Exnz_ph32v1kwkcxro-126" source="d6Exnz_ph32v1kwkcxro-113" target="d6Exnz_ph32v1kwkcxro-120" edge="1">
          <mxGeometry width="50" height="50" relative="1" as="geometry">
            <mxPoint x="225" y="210" as="sourcePoint" />
            <mxPoint x="275" y="160" as="targetPoint" />
          </mxGeometry>
        </mxCell>
        <mxCell id="d6Exnz_ph32v1kwkcxro-122" value="" style="endArrow=classic;html=1;rounded=0;exitX=0.5;exitY=0;exitDx=0;exitDy=0;" parent="d6Exnz_ph32v1kwkcxro-126" source="d6Exnz_ph32v1kwkcxro-120" edge="1">
          <mxGeometry width="50" height="50" relative="1" as="geometry">
            <mxPoint x="225" y="210" as="sourcePoint" />
            <mxPoint x="95" y="50" as="targetPoint" />
            <Array as="points">
              <mxPoint x="240" y="50" />
            </Array>
          </mxGeometry>
        </mxCell>
        <mxCell id="d6Exnz_ph32v1kwkcxro-124" value="no" style="text;html=1;align=center;verticalAlign=middle;resizable=0;points=[];autosize=1;strokeColor=none;fillColor=none;" parent="d6Exnz_ph32v1kwkcxro-126" vertex="1">
          <mxGeometry x="145" y="208" width="40" height="30" as="geometry" />
        </mxCell>
        <mxCell id="d6Exnz_ph32v1kwkcxro-125" value="yes" style="text;html=1;align=center;verticalAlign=middle;resizable=0;points=[];autosize=1;strokeColor=none;fillColor=none;" parent="d6Exnz_ph32v1kwkcxro-126" vertex="1">
          <mxGeometry x="95" y="268" width="40" height="30" as="geometry" />
        </mxCell>
        <mxCell id="d6Exnz_ph32v1kwkcxro-148" value="" style="group" parent="WIyWlLk6GJQsqaUBKTNV-1" vertex="1" connectable="0">
          <mxGeometry x="2250" y="620" width="300" height="480" as="geometry" />
        </mxCell>
        <mxCell id="d6Exnz_ph32v1kwkcxro-128" value="Start" style="ellipse;whiteSpace=wrap;html=1;container=0;" parent="d6Exnz_ph32v1kwkcxro-148" vertex="1">
          <mxGeometry x="35" width="120" height="40" as="geometry" />
        </mxCell>
        <mxCell id="d6Exnz_ph32v1kwkcxro-129" value="" style="rounded=0;html=1;jettySize=auto;orthogonalLoop=1;fontSize=11;endArrow=block;endFill=0;endSize=8;strokeWidth=1;shadow=0;labelBackgroundColor=none;edgeStyle=orthogonalEdgeStyle;exitX=0.5;exitY=1;exitDx=0;exitDy=0;" parent="d6Exnz_ph32v1kwkcxro-148" source="d6Exnz_ph32v1kwkcxro-128" edge="1">
          <mxGeometry relative="1" as="geometry">
            <mxPoint x="94.90000000000009" y="41.84000000000003" as="sourcePoint" />
            <mxPoint x="95.09999999999991" y="70" as="targetPoint" />
          </mxGeometry>
        </mxCell>
        <mxCell id="d6Exnz_ph32v1kwkcxro-130" value="input username, password, konfirmasi password" style="shape=parallelogram;perimeter=parallelogramPerimeter;whiteSpace=wrap;html=1;fixedSize=1;" parent="d6Exnz_ph32v1kwkcxro-148" vertex="1">
          <mxGeometry y="70" width="190" height="40" as="geometry" />
        </mxCell>
        <mxCell id="d6Exnz_ph32v1kwkcxro-131" value="check validasi" style="rounded=0;whiteSpace=wrap;html=1;" parent="d6Exnz_ph32v1kwkcxro-148" vertex="1">
          <mxGeometry x="35" y="140" width="120" height="40" as="geometry" />
        </mxCell>
        <mxCell id="d6Exnz_ph32v1kwkcxro-132" value="validasi valid" style="rhombus;whiteSpace=wrap;html=1;" parent="d6Exnz_ph32v1kwkcxro-148" vertex="1">
          <mxGeometry x="45" y="210" width="100" height="60" as="geometry" />
        </mxCell>
        <mxCell id="d6Exnz_ph32v1kwkcxro-134" value="End" style="ellipse;whiteSpace=wrap;html=1;container=0;" parent="d6Exnz_ph32v1kwkcxro-148" vertex="1">
          <mxGeometry x="35" y="440" width="120" height="40" as="geometry" />
        </mxCell>
        <mxCell id="d6Exnz_ph32v1kwkcxro-135" value="" style="endArrow=classic;html=1;rounded=0;entryX=0.5;entryY=0;entryDx=0;entryDy=0;" parent="d6Exnz_ph32v1kwkcxro-148" target="d6Exnz_ph32v1kwkcxro-131" edge="1">
          <mxGeometry width="50" height="50" relative="1" as="geometry">
            <mxPoint x="95" y="111" as="sourcePoint" />
            <mxPoint x="275" y="160" as="targetPoint" />
          </mxGeometry>
        </mxCell>
        <mxCell id="d6Exnz_ph32v1kwkcxro-136" value="" style="endArrow=classic;html=1;rounded=0;exitX=0.5;exitY=1;exitDx=0;exitDy=0;entryX=0.5;entryY=0;entryDx=0;entryDy=0;" parent="d6Exnz_ph32v1kwkcxro-148" source="d6Exnz_ph32v1kwkcxro-131" target="d6Exnz_ph32v1kwkcxro-132" edge="1">
          <mxGeometry width="50" height="50" relative="1" as="geometry">
            <mxPoint x="225" y="210" as="sourcePoint" />
            <mxPoint x="275" y="160" as="targetPoint" />
          </mxGeometry>
        </mxCell>
        <mxCell id="d6Exnz_ph32v1kwkcxro-137" value="" style="endArrow=classic;html=1;rounded=0;exitX=0.5;exitY=1;exitDx=0;exitDy=0;" parent="d6Exnz_ph32v1kwkcxro-148" source="d6Exnz_ph32v1kwkcxro-132" target="d6Exnz_ph32v1kwkcxro-144" edge="1">
          <mxGeometry width="50" height="50" relative="1" as="geometry">
            <mxPoint x="225" y="210" as="sourcePoint" />
            <mxPoint x="95" y="300" as="targetPoint" />
          </mxGeometry>
        </mxCell>
        <mxCell id="d6Exnz_ph32v1kwkcxro-138" value="" style="endArrow=classic;html=1;rounded=0;exitX=0.5;exitY=1;exitDx=0;exitDy=0;" parent="d6Exnz_ph32v1kwkcxro-148" target="d6Exnz_ph32v1kwkcxro-134" edge="1">
          <mxGeometry width="50" height="50" relative="1" as="geometry">
            <mxPoint x="95" y="400" as="sourcePoint" />
            <mxPoint x="275" y="300" as="targetPoint" />
          </mxGeometry>
        </mxCell>
        <mxCell id="d6Exnz_ph32v1kwkcxro-139" value="Output error" style="shape=parallelogram;perimeter=parallelogramPerimeter;whiteSpace=wrap;html=1;fixedSize=1;" parent="d6Exnz_ph32v1kwkcxro-148" vertex="1">
          <mxGeometry x="180" y="220" width="120" height="40" as="geometry" />
        </mxCell>
        <mxCell id="d6Exnz_ph32v1kwkcxro-140" value="" style="endArrow=classic;html=1;rounded=0;exitX=1;exitY=0.5;exitDx=0;exitDy=0;entryX=0;entryY=0.5;entryDx=0;entryDy=0;" parent="d6Exnz_ph32v1kwkcxro-148" source="d6Exnz_ph32v1kwkcxro-132" target="d6Exnz_ph32v1kwkcxro-139" edge="1">
          <mxGeometry width="50" height="50" relative="1" as="geometry">
            <mxPoint x="225" y="210" as="sourcePoint" />
            <mxPoint x="275" y="160" as="targetPoint" />
          </mxGeometry>
        </mxCell>
        <mxCell id="d6Exnz_ph32v1kwkcxro-141" value="" style="endArrow=classic;html=1;rounded=0;exitX=0.5;exitY=0;exitDx=0;exitDy=0;" parent="d6Exnz_ph32v1kwkcxro-148" source="d6Exnz_ph32v1kwkcxro-139" edge="1">
          <mxGeometry width="50" height="50" relative="1" as="geometry">
            <mxPoint x="225" y="210" as="sourcePoint" />
            <mxPoint x="95" y="50" as="targetPoint" />
            <Array as="points">
              <mxPoint x="240" y="50" />
            </Array>
          </mxGeometry>
        </mxCell>
        <mxCell id="d6Exnz_ph32v1kwkcxro-142" value="no" style="text;html=1;align=center;verticalAlign=middle;resizable=0;points=[];autosize=1;strokeColor=none;fillColor=none;" parent="d6Exnz_ph32v1kwkcxro-148" vertex="1">
          <mxGeometry x="145" y="208" width="40" height="30" as="geometry" />
        </mxCell>
        <mxCell id="d6Exnz_ph32v1kwkcxro-143" value="yes" style="text;html=1;align=center;verticalAlign=middle;resizable=0;points=[];autosize=1;strokeColor=none;fillColor=none;" parent="d6Exnz_ph32v1kwkcxro-148" vertex="1">
          <mxGeometry x="95" y="268" width="40" height="30" as="geometry" />
        </mxCell>
        <mxCell id="d6Exnz_ph32v1kwkcxro-144" value="simpan data user ke db" style="rounded=1;whiteSpace=wrap;html=1;" parent="d6Exnz_ph32v1kwkcxro-148" vertex="1">
          <mxGeometry x="35" y="298" width="120" height="32" as="geometry" />
        </mxCell>
        <mxCell id="d6Exnz_ph32v1kwkcxro-146" value="login" style="shape=process;whiteSpace=wrap;html=1;backgroundOutline=1;" parent="d6Exnz_ph32v1kwkcxro-148" vertex="1">
          <mxGeometry x="35" y="370" width="120" height="30" as="geometry" />
        </mxCell>
        <mxCell id="d6Exnz_ph32v1kwkcxro-147" value="" style="endArrow=classic;html=1;rounded=0;exitX=0.5;exitY=1;exitDx=0;exitDy=0;entryX=0.5;entryY=0;entryDx=0;entryDy=0;" parent="d6Exnz_ph32v1kwkcxro-148" source="d6Exnz_ph32v1kwkcxro-144" target="d6Exnz_ph32v1kwkcxro-146" edge="1">
          <mxGeometry width="50" height="50" relative="1" as="geometry">
            <mxPoint x="140" y="420" as="sourcePoint" />
            <mxPoint x="190" y="370" as="targetPoint" />
          </mxGeometry>
        </mxCell>
        <mxCell id="wC27KmQvU8No2UH0zW8N-0" value="" style="group" vertex="1" connectable="0" parent="WIyWlLk6GJQsqaUBKTNV-1">
          <mxGeometry x="2650" y="630" width="300" height="480" as="geometry" />
        </mxCell>
        <mxCell id="wC27KmQvU8No2UH0zW8N-1" value="Start" style="ellipse;whiteSpace=wrap;html=1;container=0;" vertex="1" parent="wC27KmQvU8No2UH0zW8N-0">
          <mxGeometry x="35" width="120" height="40" as="geometry" />
        </mxCell>
        <mxCell id="wC27KmQvU8No2UH0zW8N-2" value="" style="rounded=0;html=1;jettySize=auto;orthogonalLoop=1;fontSize=11;endArrow=block;endFill=0;endSize=8;strokeWidth=1;shadow=0;labelBackgroundColor=none;edgeStyle=orthogonalEdgeStyle;exitX=0.5;exitY=1;exitDx=0;exitDy=0;" edge="1" parent="wC27KmQvU8No2UH0zW8N-0" source="wC27KmQvU8No2UH0zW8N-1">
          <mxGeometry relative="1" as="geometry">
            <mxPoint x="94.90000000000009" y="41.84000000000003" as="sourcePoint" />
            <mxPoint x="95.09999999999991" y="70" as="targetPoint" />
          </mxGeometry>
        </mxCell>
        <mxCell id="wC27KmQvU8No2UH0zW8N-3" value="input method pembayaran" style="shape=parallelogram;perimeter=parallelogramPerimeter;whiteSpace=wrap;html=1;fixedSize=1;" vertex="1" parent="wC27KmQvU8No2UH0zW8N-0">
          <mxGeometry y="70" width="190" height="40" as="geometry" />
        </mxCell>
        <mxCell id="wC27KmQvU8No2UH0zW8N-4" value="check validasi" style="rounded=0;whiteSpace=wrap;html=1;" vertex="1" parent="wC27KmQvU8No2UH0zW8N-0">
          <mxGeometry x="35" y="140" width="120" height="40" as="geometry" />
        </mxCell>
        <mxCell id="wC27KmQvU8No2UH0zW8N-5" value="validasi valid" style="rhombus;whiteSpace=wrap;html=1;" vertex="1" parent="wC27KmQvU8No2UH0zW8N-0">
          <mxGeometry x="45" y="210" width="100" height="60" as="geometry" />
        </mxCell>
        <mxCell id="wC27KmQvU8No2UH0zW8N-6" value="End" style="ellipse;whiteSpace=wrap;html=1;container=0;" vertex="1" parent="wC27KmQvU8No2UH0zW8N-0">
          <mxGeometry x="35" y="370" width="120" height="40" as="geometry" />
        </mxCell>
        <mxCell id="wC27KmQvU8No2UH0zW8N-7" value="" style="endArrow=classic;html=1;rounded=0;entryX=0.5;entryY=0;entryDx=0;entryDy=0;" edge="1" parent="wC27KmQvU8No2UH0zW8N-0" target="wC27KmQvU8No2UH0zW8N-4">
          <mxGeometry width="50" height="50" relative="1" as="geometry">
            <mxPoint x="95" y="111" as="sourcePoint" />
            <mxPoint x="275" y="160" as="targetPoint" />
          </mxGeometry>
        </mxCell>
        <mxCell id="wC27KmQvU8No2UH0zW8N-8" value="" style="endArrow=classic;html=1;rounded=0;exitX=0.5;exitY=1;exitDx=0;exitDy=0;entryX=0.5;entryY=0;entryDx=0;entryDy=0;" edge="1" parent="wC27KmQvU8No2UH0zW8N-0" source="wC27KmQvU8No2UH0zW8N-4" target="wC27KmQvU8No2UH0zW8N-5">
          <mxGeometry width="50" height="50" relative="1" as="geometry">
            <mxPoint x="225" y="210" as="sourcePoint" />
            <mxPoint x="275" y="160" as="targetPoint" />
          </mxGeometry>
        </mxCell>
        <mxCell id="wC27KmQvU8No2UH0zW8N-9" value="" style="endArrow=classic;html=1;rounded=0;exitX=0.5;exitY=1;exitDx=0;exitDy=0;" edge="1" parent="wC27KmQvU8No2UH0zW8N-0" source="wC27KmQvU8No2UH0zW8N-5" target="wC27KmQvU8No2UH0zW8N-16">
          <mxGeometry width="50" height="50" relative="1" as="geometry">
            <mxPoint x="225" y="210" as="sourcePoint" />
            <mxPoint x="95" y="300" as="targetPoint" />
          </mxGeometry>
        </mxCell>
        <mxCell id="wC27KmQvU8No2UH0zW8N-11" value="Output error" style="shape=parallelogram;perimeter=parallelogramPerimeter;whiteSpace=wrap;html=1;fixedSize=1;" vertex="1" parent="wC27KmQvU8No2UH0zW8N-0">
          <mxGeometry x="180" y="220" width="120" height="40" as="geometry" />
        </mxCell>
        <mxCell id="wC27KmQvU8No2UH0zW8N-12" value="" style="endArrow=classic;html=1;rounded=0;exitX=1;exitY=0.5;exitDx=0;exitDy=0;entryX=0;entryY=0.5;entryDx=0;entryDy=0;" edge="1" parent="wC27KmQvU8No2UH0zW8N-0" source="wC27KmQvU8No2UH0zW8N-5" target="wC27KmQvU8No2UH0zW8N-11">
          <mxGeometry width="50" height="50" relative="1" as="geometry">
            <mxPoint x="225" y="210" as="sourcePoint" />
            <mxPoint x="275" y="160" as="targetPoint" />
          </mxGeometry>
        </mxCell>
        <mxCell id="wC27KmQvU8No2UH0zW8N-13" value="" style="endArrow=classic;html=1;rounded=0;exitX=0.5;exitY=0;exitDx=0;exitDy=0;" edge="1" parent="wC27KmQvU8No2UH0zW8N-0" source="wC27KmQvU8No2UH0zW8N-11">
          <mxGeometry width="50" height="50" relative="1" as="geometry">
            <mxPoint x="225" y="210" as="sourcePoint" />
            <mxPoint x="95" y="50" as="targetPoint" />
            <Array as="points">
              <mxPoint x="240" y="50" />
            </Array>
          </mxGeometry>
        </mxCell>
        <mxCell id="wC27KmQvU8No2UH0zW8N-14" value="no" style="text;html=1;align=center;verticalAlign=middle;resizable=0;points=[];autosize=1;strokeColor=none;fillColor=none;" vertex="1" parent="wC27KmQvU8No2UH0zW8N-0">
          <mxGeometry x="145" y="208" width="40" height="30" as="geometry" />
        </mxCell>
        <mxCell id="wC27KmQvU8No2UH0zW8N-15" value="yes" style="text;html=1;align=center;verticalAlign=middle;resizable=0;points=[];autosize=1;strokeColor=none;fillColor=none;" vertex="1" parent="wC27KmQvU8No2UH0zW8N-0">
          <mxGeometry x="95" y="268" width="40" height="30" as="geometry" />
        </mxCell>
        <mxCell id="wC27KmQvU8No2UH0zW8N-16" value="simpan data pembayaran success ke db" style="rounded=1;whiteSpace=wrap;html=1;" vertex="1" parent="wC27KmQvU8No2UH0zW8N-0">
          <mxGeometry x="17.5" y="298" width="155" height="32" as="geometry" />
        </mxCell>
        <mxCell id="wC27KmQvU8No2UH0zW8N-18" value="" style="endArrow=classic;html=1;rounded=0;exitX=0.5;exitY=1;exitDx=0;exitDy=0;entryX=0.5;entryY=0;entryDx=0;entryDy=0;" edge="1" parent="wC27KmQvU8No2UH0zW8N-0" source="wC27KmQvU8No2UH0zW8N-16">
          <mxGeometry width="50" height="50" relative="1" as="geometry">
            <mxPoint x="140" y="420" as="sourcePoint" />
            <mxPoint x="94.99999999999955" y="370" as="targetPoint" />
          </mxGeometry>
        </mxCell>
      </root>
    </mxGraphModel>
  </diagram>
</mxfile>
